<svg xmlns="http://www.w3.org/2000/svg" xmlns:xlink="http://www.w3.org/1999/xlink" width="1920" zoomAndPan="magnify" viewBox="0 0 1440 809.999993" height="1080" preserveAspectRatio="xMidYMid meet" version="1.0"><defs><g/><clipPath id="d3bb4732df"><path d="M 691.683594 358.980469 L 744.191406 358.980469 L 744.191406 412.207031 L 691.683594 412.207031 Z M 691.683594 358.980469 " clip-rule="nonzero"/></clipPath><clipPath id="6b9932ff05"><path d="M 717.9375 358.980469 C 732.4375 358.980469 744.191406 370.734375 744.191406 385.230469 L 744.191406 385.953125 C 744.191406 400.453125 732.4375 412.207031 717.9375 412.207031 C 703.4375 412.207031 691.683594 400.453125 691.683594 385.953125 L 691.683594 385.230469 C 691.683594 370.734375 703.4375 358.980469 717.9375 358.980469 Z M 717.9375 358.980469 " clip-rule="nonzero"/></clipPath><clipPath id="f84edb7ad6"><path d="M 804.050781 358.980469 L 856.554688 358.980469 L 856.554688 412.207031 L 804.050781 412.207031 Z M 804.050781 358.980469 " clip-rule="nonzero"/></clipPath><clipPath id="fd3b2fc6ab"><path d="M 830.300781 358.980469 C 844.800781 358.980469 856.554688 370.734375 856.554688 385.230469 L 856.554688 385.953125 C 856.554688 400.453125 844.800781 412.207031 830.300781 412.207031 C 815.804688 412.207031 804.050781 400.453125 804.050781 385.953125 L 804.050781 385.230469 C 804.050781 370.734375 815.804688 358.980469 830.300781 358.980469 Z M 830.300781 358.980469 " clip-rule="nonzero"/></clipPath><clipPath id="1988f44966"><path d="M 1188.625 351.773438 L 1396.375 351.773438 L 1396.375 405 L 1188.625 405 Z M 1188.625 351.773438 " clip-rule="nonzero"/></clipPath><clipPath id="7e6e37b0f2"><path d="M 1215.238281 351.773438 L 1369.761719 351.773438 C 1384.457031 351.773438 1396.375 363.6875 1396.375 378.386719 C 1396.375 393.085938 1384.457031 405 1369.761719 405 L 1215.238281 405 C 1200.539062 405 1188.625 393.085938 1188.625 378.386719 C 1188.625 363.6875 1200.539062 351.773438 1215.238281 351.773438 Z M 1215.238281 351.773438 " clip-rule="nonzero"/></clipPath><clipPath id="f444107f18"><path d="M 43.625 351.773438 L 251.375 351.773438 L 251.375 405 L 43.625 405 Z M 43.625 351.773438 " clip-rule="nonzero"/></clipPath><clipPath id="5bbb27e2fe"><path d="M 70.238281 351.773438 L 224.761719 351.773438 C 239.460938 351.773438 251.375 363.6875 251.375 378.386719 C 251.375 393.085938 239.460938 405 224.761719 405 L 70.238281 405 C 55.539062 405 43.625 393.085938 43.625 378.386719 C 43.625 363.6875 55.539062 351.773438 70.238281 351.773438 Z M 70.238281 351.773438 " clip-rule="nonzero"/></clipPath><clipPath id="98b9320489"><path d="M 683.167969 361.859375 L 737 361.859375 L 737 415 L 683.167969 415 Z M 683.167969 361.859375 " clip-rule="nonzero"/></clipPath><clipPath id="b17e2181b3"><path d="M 726 388 L 752.917969 388 L 752.917969 415.109375 L 726 415.109375 Z M 726 388 " clip-rule="nonzero"/></clipPath><clipPath id="0ae283d857"><path d="M 798.089844 367 L 848 367 L 848 417 L 798.089844 417 Z M 798.089844 367 " clip-rule="nonzero"/></clipPath><clipPath id="f7f5cc4619"><path d="M 832 351.773438 L 862.589844 351.773438 L 862.589844 382 L 832 382 Z M 832 351.773438 " clip-rule="nonzero"/></clipPath></defs><rect x="-144" width="1728" fill="#ffffff" y="-80.999999" height="971.999992" fill-opacity="1"/><rect x="-144" width="1728" fill="#1b1464" y="-80.999999" height="971.999992" fill-opacity="1"/><g fill="#ffffff" fill-opacity="1"><g transform="translate(222.318257, 434.658972)"><g><path d="M 73.078125 -86.722656 C 72.84375 -87.316406 72.605469 -88.027344 72.367188 -88.503906 C 70.46875 -94.671875 64.773438 -99.0625 58.25 -99.0625 C 55.285156 -99.0625 52.4375 -98.230469 50.0625 -96.570312 C 49.351562 -96.214844 48.757812 -95.738281 48.285156 -95.382812 C 46.503906 -93.839844 44.726562 -90.992188 43.066406 -86.722656 L 9.964844 -4.507812 C 9.609375 -3.441406 9.492188 -2.371094 9.726562 -1.660156 C 9.847656 -0.949219 10.441406 0.117188 12.339844 0.117188 L 25.386719 0.117188 C 26.929688 0.117188 28.117188 -0.832031 28.710938 -2.371094 L 35.472656 -19.335938 L 61.453125 -19.335938 C 62.757812 -19.335938 63.945312 -19.929688 64.539062 -21 C 65.25 -21.949219 65.367188 -23.253906 65.011719 -24.4375 L 60.742188 -34.996094 C 60.148438 -36.421875 58.84375 -37.371094 57.300781 -37.371094 L 42.589844 -37.371094 L 57.777344 -75.808594 C 57.894531 -76.046875 58.011719 -76.164062 58.011719 -76.164062 L 58.488281 -76.164062 C 58.488281 -76.164062 58.488281 -76.164062 58.605469 -75.925781 L 88.027344 -2.492188 C 88.621094 -0.832031 89.808594 0.117188 91.46875 0.117188 L 104.164062 0.117188 C 106.0625 0.117188 106.535156 -1.066406 106.773438 -1.660156 C 107.007812 -2.371094 106.890625 -3.441406 106.417969 -4.507812 Z M 73.078125 -86.722656 "/></g></g></g><g fill="#ffffff" fill-opacity="1"><g transform="translate(344.750454, 434.658972)"><g><path d="M 66.792969 -58.367188 L 31.203125 -58.367188 C 29.421875 -58.367188 27.167969 -59.082031 27.167969 -64.894531 L 27.167969 -73.671875 C 27.167969 -75.808594 27.523438 -77.46875 28.117188 -78.65625 C 28.589844 -79.367188 29.304688 -80.199219 31.320312 -80.199219 L 79.605469 -80.199219 C 80.554688 -80.199219 82.925781 -80.554688 82.925781 -84.230469 L 82.925781 -93.722656 C 82.925781 -97.398438 80.554688 -97.757812 79.605469 -97.757812 L 28.472656 -97.757812 C 21.949219 -97.757812 17.203125 -95.621094 14.117188 -91.230469 C 11.03125 -86.960938 9.492188 -81.265625 9.492188 -74.382812 L 9.492188 -65.367188 C 9.492188 -57.183594 11.152344 -50.539062 14.117188 -46.386719 C 17.796875 -41.523438 23.253906 -40.8125 28.234375 -40.8125 L 63.824219 -40.8125 C 65.605469 -40.8125 67.976562 -40.097656 67.976562 -34.285156 L 67.976562 -24.082031 C 67.976562 -21.949219 67.621094 -20.285156 66.910156 -19.101562 C 66.4375 -18.386719 65.722656 -17.558594 63.707031 -17.558594 L 13.050781 -17.558594 C 11.980469 -17.558594 9.609375 -17.203125 9.609375 -13.523438 L 9.609375 -4.035156 C 9.609375 -0.355469 11.980469 0 13.050781 0 L 66.554688 0 C 73.078125 0 77.945312 -2.253906 81.027344 -6.644531 C 83.996094 -10.914062 85.535156 -16.492188 85.535156 -23.371094 L 85.535156 -33.8125 C 85.535156 -41.523438 83.996094 -47.574219 80.910156 -51.84375 C 77.707031 -56.113281 72.960938 -58.367188 66.792969 -58.367188 Z M 66.792969 -58.367188 "/></g></g></g><g fill="#ffffff" fill-opacity="1"><g transform="translate(445.709556, 434.658972)"><g><path d="M 91.46875 -97.757812 L 12.929688 -97.757812 C 11.863281 -97.757812 9.492188 -97.398438 9.492188 -93.722656 L 9.492188 -84.46875 C 9.492188 -80.554688 11.863281 -80.199219 12.929688 -80.199219 L 43.421875 -80.199219 L 43.421875 -4.035156 C 43.421875 -0.355469 45.792969 0 46.742188 0 L 57.65625 0 C 58.726562 0 60.980469 -0.355469 60.980469 -4.035156 L 60.980469 -80.199219 L 91.46875 -80.199219 C 92.535156 -80.199219 94.910156 -80.554688 94.910156 -84.46875 L 94.910156 -93.722656 C 94.910156 -97.398438 92.535156 -97.757812 91.46875 -97.757812 Z M 91.46875 -97.757812 "/></g></g></g><g fill="#ffffff" fill-opacity="1"><g transform="translate(556.040895, 434.658972)"><g><path d="M 90.402344 -69.402344 C 90.402344 -69.285156 90.402344 -69.164062 90.402344 -69.046875 C 90.402344 -68.925781 90.402344 -68.808594 90.402344 -68.691406 Z M 92.65625 -5.101562 L 71.894531 -40.691406 C 77.707031 -41.402344 82.214844 -43.894531 85.179688 -47.929688 C 88.503906 -52.792969 90.28125 -59.792969 90.402344 -69.046875 C 90.28125 -78.300781 88.503906 -85.300781 85.179688 -90.164062 C 81.621094 -95.265625 75.691406 -97.757812 67.621094 -97.757812 L 12.929688 -97.757812 C 11.863281 -97.757812 9.492188 -97.398438 9.492188 -93.605469 L 9.492188 -84.230469 C 9.492188 -80.554688 11.863281 -80.199219 12.929688 -80.199219 L 64.539062 -80.199219 C 67.621094 -80.199219 69.640625 -79.367188 70.824219 -77.589844 C 72.128906 -75.808594 72.722656 -72.960938 72.722656 -69.046875 C 72.722656 -65.132812 72.128906 -62.285156 70.824219 -60.503906 C 69.640625 -58.726562 67.621094 -57.894531 64.539062 -57.894531 L 12.929688 -57.894531 C 11.863281 -57.894531 9.492188 -57.539062 9.492188 -53.859375 L 9.492188 -4.035156 C 9.492188 -0.355469 11.863281 0.117188 12.929688 0.117188 L 23.726562 0.117188 C 24.792969 0.117188 27.050781 -0.355469 27.050781 -4.035156 L 27.050781 -40.335938 L 52.082031 -40.335938 L 73.554688 -2.253906 C 74.027344 -1.542969 74.382812 -0.949219 74.859375 -0.59375 C 75.453125 -0.117188 76.28125 0.117188 77.351562 0.117188 L 90.402344 0.117188 C 91.824219 0.117188 92.890625 -0.832031 93.128906 -2.253906 C 93.246094 -3.441406 93.128906 -4.390625 92.65625 -5.101562 Z M 92.65625 -5.101562 "/></g></g></g><g fill="#ffffff" fill-opacity="1"><g transform="translate(664.711322, 434.658972)"><g><path d="M 90.28125 -89.09375 C 87.910156 -92.0625 84.824219 -94.316406 81.027344 -95.738281 C 77.351562 -97.042969 72.84375 -97.757812 67.621094 -97.757812 L 38.675781 -97.757812 C 33.457031 -97.757812 29.066406 -97.042969 25.386719 -95.738281 C 21.589844 -94.316406 18.507812 -92.0625 16.132812 -89.09375 C 13.878906 -86.128906 12.101562 -82.214844 11.03125 -77.46875 C 9.964844 -72.84375 9.492188 -67.265625 9.492188 -60.621094 L 9.492188 -37.132812 C 9.492188 -30.488281 9.964844 -24.792969 11.03125 -20.167969 C 12.101562 -15.421875 13.878906 -11.507812 16.132812 -8.542969 C 18.507812 -5.457031 21.589844 -3.203125 25.386719 -1.898438 C 28.945312 -0.59375 33.457031 0.117188 38.675781 0.117188 L 67.621094 0.117188 C 72.84375 0.117188 77.351562 -0.59375 81.027344 -1.898438 C 84.824219 -3.203125 87.910156 -5.457031 90.28125 -8.421875 C 92.65625 -11.507812 94.316406 -15.421875 95.382812 -20.167969 C 96.332031 -24.792969 96.925781 -30.488281 96.925781 -37.132812 L 96.925781 -60.621094 C 96.925781 -67.148438 96.332031 -72.84375 95.382812 -77.46875 C 94.316406 -82.214844 92.65625 -86.128906 90.28125 -89.09375 Z M 79.25 -62.640625 L 79.25 -34.996094 C 79.25 -31.558594 79.128906 -28.589844 78.65625 -26.21875 C 78.300781 -24.082031 77.589844 -22.183594 76.640625 -21 C 75.808594 -19.695312 74.621094 -18.863281 73.078125 -18.386719 C 71.539062 -17.796875 69.519531 -17.558594 67.03125 -17.558594 L 39.269531 -17.558594 C 36.777344 -17.558594 34.761719 -17.796875 33.21875 -18.386719 C 31.675781 -18.863281 30.488281 -19.695312 29.660156 -21 C 28.710938 -22.183594 28.117188 -24.082031 27.640625 -26.21875 C 27.285156 -28.589844 27.050781 -31.558594 27.050781 -34.996094 L 27.050781 -62.640625 C 27.050781 -66.082031 27.285156 -69.046875 27.640625 -71.417969 C 28.117188 -73.671875 28.710938 -75.453125 29.660156 -76.757812 C 30.488281 -77.945312 31.675781 -78.773438 33.21875 -79.367188 C 34.761719 -79.84375 36.777344 -80.199219 39.269531 -80.199219 L 67.03125 -80.199219 C 69.519531 -80.199219 71.539062 -79.84375 73.078125 -79.367188 C 74.621094 -78.773438 75.808594 -77.945312 76.640625 -76.757812 C 77.589844 -75.453125 78.300781 -73.671875 78.65625 -71.417969 C 79.128906 -69.046875 79.25 -66.082031 79.25 -62.640625 Z M 79.25 -62.640625 "/></g></g></g><g fill="#ffffff" fill-opacity="1"><g transform="translate(777.059495, 434.658972)"><g><path d="M 90.28125 -89.09375 C 87.910156 -92.0625 84.824219 -94.316406 81.027344 -95.738281 C 77.351562 -97.042969 72.84375 -97.757812 67.621094 -97.757812 L 38.675781 -97.757812 C 33.457031 -97.757812 29.066406 -97.042969 25.386719 -95.738281 C 21.589844 -94.316406 18.507812 -92.0625 16.132812 -89.09375 C 13.878906 -86.128906 12.101562 -82.214844 11.03125 -77.46875 C 9.964844 -72.84375 9.492188 -67.265625 9.492188 -60.621094 L 9.492188 -37.132812 C 9.492188 -30.488281 9.964844 -24.792969 11.03125 -20.167969 C 12.101562 -15.421875 13.878906 -11.507812 16.132812 -8.542969 C 18.507812 -5.457031 21.589844 -3.203125 25.386719 -1.898438 C 28.945312 -0.59375 33.457031 0.117188 38.675781 0.117188 L 67.621094 0.117188 C 72.84375 0.117188 77.351562 -0.59375 81.027344 -1.898438 C 84.824219 -3.203125 87.910156 -5.457031 90.28125 -8.421875 C 92.65625 -11.507812 94.316406 -15.421875 95.382812 -20.167969 C 96.332031 -24.792969 96.925781 -30.488281 96.925781 -37.132812 L 96.925781 -60.621094 C 96.925781 -67.148438 96.332031 -72.84375 95.382812 -77.46875 C 94.316406 -82.214844 92.65625 -86.128906 90.28125 -89.09375 Z M 79.25 -62.640625 L 79.25 -34.996094 C 79.25 -31.558594 79.128906 -28.589844 78.65625 -26.21875 C 78.300781 -24.082031 77.589844 -22.183594 76.640625 -21 C 75.808594 -19.695312 74.621094 -18.863281 73.078125 -18.386719 C 71.539062 -17.796875 69.519531 -17.558594 67.03125 -17.558594 L 39.269531 -17.558594 C 36.777344 -17.558594 34.761719 -17.796875 33.21875 -18.386719 C 31.675781 -18.863281 30.488281 -19.695312 29.660156 -21 C 28.710938 -22.183594 28.117188 -24.082031 27.640625 -26.21875 C 27.285156 -28.589844 27.050781 -31.558594 27.050781 -34.996094 L 27.050781 -62.640625 C 27.050781 -66.082031 27.285156 -69.046875 27.640625 -71.417969 C 28.117188 -73.671875 28.710938 -75.453125 29.660156 -76.757812 C 30.488281 -77.945312 31.675781 -78.773438 33.21875 -79.367188 C 34.761719 -79.84375 36.777344 -80.199219 39.269531 -80.199219 L 67.03125 -80.199219 C 69.519531 -80.199219 71.539062 -79.84375 73.078125 -79.367188 C 74.621094 -78.773438 75.808594 -77.945312 76.640625 -76.757812 C 77.589844 -75.453125 78.300781 -73.671875 78.65625 -71.417969 C 79.128906 -69.046875 79.25 -66.082031 79.25 -62.640625 Z M 79.25 -62.640625 "/></g></g></g><g fill="#ffffff" fill-opacity="1"><g transform="translate(889.407638, 434.658972)"><g><path d="M 91.585938 -67.503906 L 91.585938 -74.148438 C 91.585938 -81.859375 90.042969 -87.789062 86.960938 -91.707031 C 83.875 -95.738281 78.65625 -97.757812 71.417969 -97.757812 L 18.980469 -97.757812 L 18.980469 -97.636719 C 15.542969 -97.398438 12.574219 -95.5 10.796875 -92.65625 C 10.320312 -91.707031 9.847656 -90.636719 9.609375 -89.6875 L 9.492188 -8.660156 C 9.726562 -7.355469 10.203125 -6.050781 10.796875 -4.984375 C 12.695312 -1.78125 16.132812 0.117188 19.8125 0.117188 L 73.199219 0.117188 C 76.757812 0.117188 79.722656 -0.472656 82.097656 -1.660156 C 84.585938 -2.847656 86.605469 -4.507812 88.027344 -6.761719 C 89.570312 -8.898438 90.519531 -11.507812 91.230469 -14.59375 C 91.824219 -17.558594 92.179688 -21 92.179688 -24.675781 L 92.179688 -32.625 C 92.179688 -40.453125 89.925781 -46.386719 85.65625 -50.300781 C 89.6875 -54.335938 91.585938 -60.148438 91.585938 -67.503906 Z M 26.929688 -18.152344 L 26.929688 -79.484375 C 26.929688 -79.960938 27.050781 -80.199219 27.167969 -80.199219 L 68.335938 -80.199219 C 70.589844 -80.199219 72.25 -79.605469 73.199219 -78.535156 C 74.148438 -77.46875 74.621094 -75.570312 74.621094 -73.078125 L 74.621094 -64.894531 C 74.621094 -62.640625 74.148438 -60.859375 73.078125 -59.675781 C 72.128906 -58.605469 70.113281 -58.011719 67.03125 -58.011719 L 44.015625 -58.011719 C 41.878906 -58.011719 40.097656 -56.234375 40.097656 -54.097656 L 40.097656 -44.371094 C 40.097656 -42.117188 41.878906 -40.453125 44.015625 -40.453125 L 67.03125 -40.453125 C 70.113281 -40.453125 72.128906 -39.742188 73.199219 -38.558594 C 74.148438 -37.371094 74.742188 -35.472656 74.742188 -32.863281 L 74.742188 -24.792969 C 74.742188 -22.066406 74.265625 -20.167969 73.316406 -19.101562 C 72.367188 -18.03125 70.707031 -17.558594 68.335938 -17.558594 L 27.050781 -17.558594 C 27.050781 -17.558594 26.929688 -17.675781 26.929688 -18.152344 Z M 26.929688 -18.152344 "/></g></g></g><g fill="#ffffff" fill-opacity="1"><g transform="translate(997.010356, 434.658972)"><g><path d="M 91.46875 -97.757812 L 80.554688 -97.757812 C 79.484375 -97.757812 77.230469 -97.398438 77.230469 -93.722656 L 77.230469 -35.234375 C 77.230469 -31.675781 76.996094 -28.589844 76.640625 -26.335938 C 76.28125 -24.082031 75.570312 -22.304688 74.742188 -21 C 73.792969 -19.8125 72.722656 -18.980469 71.179688 -18.386719 C 69.640625 -17.914062 67.503906 -17.558594 65.011719 -17.558594 L 39.386719 -17.558594 C 36.894531 -17.558594 34.761719 -17.914062 33.21875 -18.386719 C 31.675781 -18.980469 30.609375 -19.8125 29.660156 -21 C 28.828125 -22.304688 28.117188 -24.082031 27.640625 -26.335938 C 27.285156 -28.589844 27.050781 -31.675781 27.050781 -35.234375 L 27.050781 -93.722656 C 27.050781 -97.398438 24.792969 -97.757812 23.726562 -97.757812 L 12.929688 -97.757812 C 11.863281 -97.757812 9.492188 -97.398438 9.492188 -93.722656 L 9.492188 -37.132812 C 9.492188 -30.488281 9.964844 -24.792969 11.03125 -20.167969 C 12.101562 -15.421875 13.878906 -11.507812 16.253906 -8.542969 C 18.507812 -5.457031 21.710938 -3.320312 25.386719 -1.898438 C 29.066406 -0.59375 33.574219 0 38.792969 0 L 65.488281 0 C 70.707031 0 75.214844 -0.59375 78.894531 -1.898438 C 82.6875 -3.320312 85.773438 -5.457031 88.148438 -8.542969 C 90.519531 -11.507812 92.179688 -15.421875 93.246094 -20.167969 C 94.316406 -24.792969 94.789062 -30.488281 94.789062 -37.132812 L 94.789062 -93.722656 C 94.789062 -97.398438 92.535156 -97.757812 91.46875 -97.757812 Z M 91.46875 -97.757812 "/></g></g></g><g fill="#ffffff" fill-opacity="1"><g transform="translate(1107.223078, 434.658972)"><g><path d="M 66.792969 -58.367188 L 31.203125 -58.367188 C 29.421875 -58.367188 27.167969 -59.082031 27.167969 -64.894531 L 27.167969 -73.671875 C 27.167969 -75.808594 27.523438 -77.46875 28.117188 -78.65625 C 28.589844 -79.367188 29.304688 -80.199219 31.320312 -80.199219 L 79.605469 -80.199219 C 80.554688 -80.199219 82.925781 -80.554688 82.925781 -84.230469 L 82.925781 -93.722656 C 82.925781 -97.398438 80.554688 -97.757812 79.605469 -97.757812 L 28.472656 -97.757812 C 21.949219 -97.757812 17.203125 -95.621094 14.117188 -91.230469 C 11.03125 -86.960938 9.492188 -81.265625 9.492188 -74.382812 L 9.492188 -65.367188 C 9.492188 -57.183594 11.152344 -50.539062 14.117188 -46.386719 C 17.796875 -41.523438 23.253906 -40.8125 28.234375 -40.8125 L 63.824219 -40.8125 C 65.605469 -40.8125 67.976562 -40.097656 67.976562 -34.285156 L 67.976562 -24.082031 C 67.976562 -21.949219 67.621094 -20.285156 66.910156 -19.101562 C 66.4375 -18.386719 65.722656 -17.558594 63.707031 -17.558594 L 13.050781 -17.558594 C 11.980469 -17.558594 9.609375 -17.203125 9.609375 -13.523438 L 9.609375 -4.035156 C 9.609375 -0.355469 11.980469 0 13.050781 0 L 66.554688 0 C 73.078125 0 77.945312 -2.253906 81.027344 -6.644531 C 83.996094 -10.914062 85.535156 -16.492188 85.535156 -23.371094 L 85.535156 -33.8125 C 85.535156 -41.523438 83.996094 -47.574219 80.910156 -51.84375 C 77.707031 -56.113281 72.960938 -58.367188 66.792969 -58.367188 Z M 66.792969 -58.367188 "/></g></g></g><path stroke-linecap="butt" transform="matrix(0.750052, 0, 0, 0.75, 126.166349, 382.592492)" fill="none" stroke-linejoin="miter" d="M 0.00215995 4.001678 L 1570.903371 4.001678 " stroke="#ffffff" stroke-width="8" stroke-opacity="1" stroke-miterlimit="4"/><g clip-path="url(#d3bb4732df)"><g clip-path="url(#6b9932ff05)"><path fill="#1b1464" d="M 691.683594 358.980469 L 744.191406 358.980469 L 744.191406 412.207031 L 691.683594 412.207031 Z M 691.683594 358.980469 " fill-opacity="1" fill-rule="nonzero"/></g></g><g clip-path="url(#f84edb7ad6)"><g clip-path="url(#fd3b2fc6ab)"><path fill="#1b1464" d="M 804.050781 358.980469 L 856.554688 358.980469 L 856.554688 412.207031 L 804.050781 412.207031 Z M 804.050781 358.980469 " fill-opacity="1" fill-rule="nonzero"/></g></g><g clip-path="url(#1988f44966)"><g clip-path="url(#7e6e37b0f2)"><path fill="#1b1464" d="M 1188.625 351.773438 L 1396.375 351.773438 L 1396.375 405 L 1188.625 405 Z M 1188.625 351.773438 " fill-opacity="1" fill-rule="nonzero"/></g></g><g clip-path="url(#f444107f18)"><g clip-path="url(#5bbb27e2fe)"><path fill="#1b1464" d="M 43.625 351.773438 L 251.375 351.773438 L 251.375 405 L 43.625 405 Z M 43.625 351.773438 " fill-opacity="1" fill-rule="nonzero"/></g></g><g clip-path="url(#98b9320489)"><path fill="#ffffff" d="M 710.296875 376.046875 C 710.375 376.785156 710.519531 377.511719 710.722656 378.226562 C 710.925781 378.9375 711.191406 379.632812 711.511719 380.300781 C 711.835938 380.96875 712.210938 381.609375 712.640625 382.214844 C 713.070312 382.820312 713.550781 383.386719 714.074219 383.910156 C 714.601562 384.433594 715.167969 384.910156 715.777344 385.339844 C 716.382812 385.769531 717.023438 386.144531 717.695312 386.464844 C 718.367188 386.789062 719.058594 387.050781 719.777344 387.253906 C 720.492188 387.457031 721.21875 387.597656 721.960938 387.679688 C 726.671875 388.148438 731.394531 388.363281 736.128906 388.324219 C 731.394531 388.285156 726.671875 388.5 721.960938 388.96875 C 721.21875 389.050781 720.492188 389.191406 719.777344 389.394531 C 719.058594 389.597656 718.367188 389.859375 717.695312 390.183594 C 717.023438 390.503906 716.382812 390.878906 715.777344 391.308594 C 715.167969 391.734375 714.601562 392.214844 714.074219 392.738281 C 713.550781 393.261719 713.070312 393.828125 712.640625 394.433594 C 712.210938 395.039062 711.835938 395.679688 711.511719 396.347656 C 711.191406 397.015625 710.925781 397.707031 710.722656 398.421875 C 710.519531 399.136719 710.375 399.863281 710.296875 400.601562 C 709.824219 405.300781 709.609375 410.011719 709.648438 414.730469 C 709.6875 410.011719 709.472656 405.300781 709.003906 400.601562 C 708.921875 399.863281 708.78125 399.136719 708.574219 398.421875 C 708.371094 397.707031 708.109375 397.015625 707.785156 396.347656 C 707.464844 395.679688 707.089844 395.039062 706.660156 394.433594 C 706.226562 393.828125 705.75 393.261719 705.222656 392.738281 C 704.695312 392.214844 704.128906 391.734375 703.523438 391.308594 C 702.914062 390.878906 702.273438 390.503906 701.605469 390.179688 C 700.933594 389.859375 700.238281 389.597656 699.523438 389.394531 C 698.808594 389.191406 698.078125 389.046875 697.339844 388.96875 C 692.628906 388.5 687.902344 388.285156 683.167969 388.324219 C 687.902344 388.363281 692.628906 388.148438 697.339844 387.679688 C 698.078125 387.597656 698.808594 387.457031 699.523438 387.253906 C 700.238281 387.050781 700.933594 386.785156 701.605469 386.464844 C 702.273438 386.144531 702.914062 385.769531 703.523438 385.339844 C 704.128906 384.910156 704.695312 384.433594 705.222656 383.910156 C 705.75 383.386719 706.226562 382.820312 706.660156 382.214844 C 707.089844 381.609375 707.464844 380.96875 707.785156 380.300781 C 708.109375 379.632812 708.371094 378.9375 708.574219 378.226562 C 708.78125 377.511719 708.921875 376.785156 709.003906 376.046875 C 709.472656 371.347656 709.6875 366.636719 709.648438 361.917969 C 709.609375 366.636719 709.824219 371.347656 710.296875 376.046875 Z M 710.296875 376.046875 " fill-opacity="1" fill-rule="nonzero"/></g><g clip-path="url(#b17e2181b3)"><path fill="#ffffff" d="M 739.859375 395.476562 C 739.941406 396.226562 740.148438 396.945312 740.476562 397.628906 C 740.804688 398.308594 741.234375 398.917969 741.773438 399.453125 C 742.308594 399.988281 742.921875 400.421875 743.605469 400.746094 C 744.289062 401.074219 745.007812 401.28125 745.761719 401.363281 C 748.148438 401.597656 750.535156 401.707031 752.933594 401.6875 C 750.535156 401.667969 748.148438 401.777344 745.761719 402.011719 C 745.007812 402.09375 744.289062 402.300781 743.605469 402.628906 C 742.921875 402.953125 742.308594 403.386719 741.773438 403.921875 C 741.234375 404.457031 740.804688 405.066406 740.476562 405.746094 C 740.148438 406.429688 739.941406 407.148438 739.859375 407.898438 C 739.621094 410.277344 739.511719 412.660156 739.53125 415.050781 C 739.550781 412.660156 739.445312 410.277344 739.207031 407.898438 C 739.125 407.148438 738.917969 406.429688 738.589844 405.746094 C 738.261719 405.066406 737.828125 404.457031 737.292969 403.921875 C 736.757812 403.386719 736.144531 402.953125 735.460938 402.628906 C 734.777344 402.300781 734.058594 402.09375 733.304688 402.011719 C 730.917969 401.777344 728.527344 401.667969 726.132812 401.6875 C 728.527344 401.707031 730.917969 401.597656 733.304688 401.363281 C 734.058594 401.28125 734.777344 401.074219 735.460938 400.746094 C 736.144531 400.421875 736.757812 399.988281 737.292969 399.453125 C 737.828125 398.917969 738.261719 398.308594 738.589844 397.628906 C 738.917969 396.945312 739.125 396.226562 739.207031 395.476562 C 739.445312 393.097656 739.554688 390.714844 739.535156 388.324219 C 739.515625 390.714844 739.621094 393.097656 739.859375 395.476562 Z M 739.859375 395.476562 " fill-opacity="1" fill-rule="nonzero"/></g><path fill="#ffffff" d="M 729.785156 369.101562 C 729.835938 369.5625 729.960938 370 730.164062 370.417969 C 730.363281 370.835938 730.628906 371.207031 730.953125 371.53125 C 731.28125 371.859375 731.65625 372.121094 732.074219 372.324219 C 732.492188 372.523438 732.929688 372.648438 733.390625 372.699219 C 734.847656 372.84375 736.304688 372.910156 737.769531 372.898438 C 736.304688 372.882812 734.847656 372.949219 733.390625 373.09375 C 732.929688 373.144531 732.492188 373.269531 732.074219 373.46875 C 731.65625 373.671875 731.28125 373.933594 730.953125 374.261719 C 730.628906 374.585938 730.363281 374.960938 730.164062 375.375 C 729.960938 375.792969 729.835938 376.230469 729.785156 376.691406 C 729.640625 378.140625 729.574219 379.597656 729.585938 381.054688 C 729.597656 379.597656 729.53125 378.140625 729.386719 376.691406 C 729.335938 376.230469 729.210938 375.792969 729.011719 375.375 C 728.8125 374.960938 728.546875 374.585938 728.21875 374.261719 C 727.890625 373.933594 727.519531 373.671875 727.101562 373.46875 C 726.683594 373.269531 726.242188 373.144531 725.785156 373.09375 C 724.328125 372.949219 722.867188 372.882812 721.40625 372.898438 C 722.867188 372.910156 724.328125 372.84375 725.785156 372.699219 C 726.242188 372.648438 726.683594 372.523438 727.101562 372.324219 C 727.519531 372.121094 727.890625 371.859375 728.21875 371.53125 C 728.546875 371.207031 728.808594 370.835938 729.011719 370.417969 C 729.210938 370 729.335938 369.5625 729.386719 369.101562 C 729.53125 367.652344 729.597656 366.195312 729.585938 364.734375 C 729.574219 366.195312 729.640625 367.652344 729.785156 369.101562 Z M 729.785156 369.101562 " fill-opacity="1" fill-rule="nonzero"/><g clip-path="url(#0ae283d857)"><path fill="#ffffff" d="M 823.410156 380.941406 C 823.484375 381.625 823.617188 382.300781 823.808594 382.964844 C 824 383.628906 824.246094 384.273438 824.546875 384.894531 C 824.84375 385.515625 825.195312 386.109375 825.597656 386.671875 C 826 387.234375 826.445312 387.761719 826.9375 388.25 C 827.429688 388.738281 827.957031 389.179688 828.527344 389.582031 C 829.09375 389.980469 829.691406 390.328125 830.316406 390.625 C 830.941406 390.925781 831.589844 391.167969 832.257812 391.359375 C 832.925781 391.546875 833.605469 391.679688 834.296875 391.753906 C 838.695312 392.191406 843.101562 392.390625 847.523438 392.351562 C 843.101562 392.316406 838.695312 392.515625 834.296875 392.953125 C 833.605469 393.027344 832.925781 393.160156 832.257812 393.347656 C 831.589844 393.539062 830.941406 393.78125 830.316406 394.082031 C 829.6875 394.378906 829.09375 394.726562 828.523438 395.125 C 827.957031 395.527344 827.429688 395.96875 826.9375 396.457031 C 826.445312 396.945312 826 397.46875 825.597656 398.035156 C 825.195312 398.597656 824.84375 399.191406 824.546875 399.8125 C 824.246094 400.433594 824 401.078125 823.808594 401.742188 C 823.617188 402.40625 823.484375 403.078125 823.410156 403.765625 C 822.972656 408.132812 822.769531 412.511719 822.804688 416.902344 C 822.84375 412.511719 822.640625 408.132812 822.203125 403.765625 C 822.128906 403.078125 821.996094 402.40625 821.804688 401.742188 C 821.613281 401.078125 821.367188 400.433594 821.066406 399.8125 C 820.765625 399.1875 820.417969 398.597656 820.015625 398.035156 C 819.613281 397.46875 819.167969 396.945312 818.675781 396.457031 C 818.183594 395.96875 817.652344 395.523438 817.085938 395.125 C 816.519531 394.726562 815.921875 394.378906 815.296875 394.078125 C 814.667969 393.78125 814.023438 393.539062 813.355469 393.347656 C 812.6875 393.160156 812.007812 393.027344 811.316406 392.953125 C 806.917969 392.515625 802.507812 392.316406 798.089844 392.351562 C 802.507812 392.390625 806.917969 392.191406 811.316406 391.753906 C 812.007812 391.679688 812.6875 391.546875 813.355469 391.359375 C 814.023438 391.167969 814.667969 390.925781 815.296875 390.625 C 815.921875 390.328125 816.519531 389.980469 817.085938 389.582031 C 817.65625 389.179688 818.183594 388.738281 818.675781 388.25 C 819.167969 387.761719 819.613281 387.234375 820.015625 386.671875 C 820.417969 386.109375 820.765625 385.515625 821.066406 384.894531 C 821.367188 384.273438 821.613281 383.628906 821.804688 382.964844 C 821.996094 382.300781 822.128906 381.625 822.203125 380.941406 C 822.640625 376.574219 822.84375 372.195312 822.804688 367.804688 C 822.769531 372.195312 822.972656 376.574219 823.410156 380.941406 Z M 823.410156 380.941406 " fill-opacity="1" fill-rule="nonzero"/></g><g clip-path="url(#f7f5cc4619)"><path fill="#ffffff" d="M 847.890625 359.898438 C 847.984375 360.742188 848.214844 361.546875 848.585938 362.3125 C 848.953125 363.078125 849.441406 363.761719 850.046875 364.363281 C 850.648438 364.960938 851.335938 365.445312 852.109375 365.8125 C 852.878906 366.179688 853.6875 366.410156 854.539062 366.5 C 857.222656 366.765625 859.917969 366.886719 862.613281 366.867188 C 859.917969 366.84375 857.222656 366.964844 854.539062 367.230469 C 853.6875 367.324219 852.878906 367.554688 852.109375 367.921875 C 851.335938 368.289062 850.648438 368.773438 850.046875 369.371094 C 849.441406 369.972656 848.953125 370.65625 848.585938 371.421875 C 848.214844 372.1875 847.984375 372.992188 847.890625 373.835938 C 847.625 376.5 847.5 379.175781 847.523438 381.855469 C 847.542969 379.175781 847.421875 376.5 847.152344 373.835938 C 847.0625 372.992188 846.828125 372.1875 846.460938 371.421875 C 846.089844 370.65625 845.605469 369.972656 845 369.371094 C 844.394531 368.773438 843.707031 368.289062 842.9375 367.921875 C 842.167969 367.554688 841.355469 367.324219 840.507812 367.230469 C 837.820312 366.964844 835.128906 366.84375 832.433594 366.867188 C 835.128906 366.886719 837.820312 366.765625 840.507812 366.5 C 841.355469 366.410156 842.167969 366.179688 842.9375 365.8125 C 843.707031 365.445312 844.394531 364.960938 845 364.363281 C 845.605469 363.761719 846.09375 363.078125 846.460938 362.3125 C 846.832031 361.546875 847.0625 360.742188 847.15625 359.898438 C 847.421875 357.230469 847.542969 354.558594 847.523438 351.878906 C 847.5 354.558594 847.625 357.230469 847.890625 359.898438 Z M 847.890625 359.898438 " fill-opacity="1" fill-rule="nonzero"/></g></svg>