<?xml version="1.0" standalone="no"?>
<!DOCTYPE svg PUBLIC "-//W3C//DTD SVG 20010904//EN"
 "http://www.w3.org/TR/2001/REC-SVG-20010904/DTD/svg10.dtd">
<svg version="1.0" xmlns="http://www.w3.org/2000/svg"
 width="1219.000000pt" height="137.000000pt" viewBox="0 0 1219.000000 137.000000"
 preserveAspectRatio="xMidYMid meet">

<g transform="translate(0.000000,137.000000) scale(0.100000,-0.100000)"
fill="#000000" stroke="none">
<path d="M610 1278 c-57 -29 -72 -57 -195 -364 -53 -131 -104 -259 -114 -284
-164 -398 -214 -532 -205 -548 9 -13 29 -18 85 -20 135 -6 130 -9 185 128 l48
120 171 0 c180 0 195 3 195 46 0 20 -53 150 -66 164 -3 3 -52 7 -108 10 l-103
5 20 53 20 52 155 -2 156 -3 112 -279 c61 -153 118 -282 125 -287 16 -10 169
-12 193 -3 9 3 16 17 16 29 0 13 -45 135 -101 272 -56 136 -103 254 -106 261
-4 9 57 12 286 12 l291 0 42 -27 41 -28 285 -5 c269 -5 284 -6 298 -25 12 -16
15 -45 12 -133 -3 -99 -6 -116 -22 -128 -16 -11 -81 -14 -351 -14 -244 0 -334
-3 -343 -12 -14 -14 -17 -165 -3 -186 6 -10 88 -12 403 -10 l396 3 39 30 c21
18 51 57 68 90 29 58 30 63 30 210 0 82 -3 169 -8 193 l-7 42 380 0 380 0 2
-282 3 -283 100 0 100 0 3 283 2 282 370 0 370 0 0 -274 c0 -236 2 -277 16
-290 11 -12 36 -16 93 -16 116 0 111 -12 111 274 l0 237 158 -3 157 -3 131
-232 c72 -128 139 -242 149 -253 16 -17 31 -20 110 -20 94 0 115 8 115 43 0
10 -57 118 -127 239 -71 122 -126 224 -124 227 3 3 23 12 45 20 23 7 53 22 68
32 24 17 47 19 242 19 l216 0 0 -109 c0 -185 34 -313 101 -380 78 -77 186 -96
509 -88 246 6 297 16 361 74 79 72 108 162 116 371 l6 132 153 0 154 0 0 -57
c0 -112 20 -274 42 -330 29 -79 95 -143 173 -168 54 -18 89 -20 330 -20 227 0
279 3 326 17 158 49 218 170 219 436 l0 122 160 0 159 0 3 -256 3 -256 32 -28
c20 -18 48 -31 75 -35 24 -4 203 -5 398 -3 l355 3 47 28 c60 35 93 90 109 181
15 90 7 279 -14 328 l-16 38 175 0 174 0 0 -83 c0 -204 34 -332 109 -407 75
-74 105 -80 427 -80 301 0 334 5 407 62 80 64 111 160 123 381 l7 127 179 0
c178 0 179 0 220 -28 l41 -27 285 -5 c266 -5 285 -6 298 -24 10 -14 14 -50 14
-128 0 -161 32 -148 -373 -148 -246 0 -336 -3 -345 -12 -18 -18 -16 -172 2
-187 10 -9 120 -11 404 -9 l390 3 39 30 c21 18 51 57 68 90 30 59 30 62 30
220 0 140 -3 169 -23 230 -21 64 -28 74 -74 105 l-51 35 -274 5 c-327 6 -303
-5 -303 140 0 152 -31 140 356 140 l324 0 10 26 c6 14 10 54 10 90 0 109 18
104 -365 104 -199 0 -344 -4 -376 -11 -63 -14 -117 -60 -150 -127 -21 -43 -24
-60 -24 -202 0 -85 4 -174 8 -197 l9 -43 -166 0 -166 0 0 270 c0 323 5 310
-112 310 -40 0 -80 -5 -88 -10 -13 -8 -16 -55 -20 -287 l-5 -278 -312 -3 -313
-2 0 274 c0 236 -2 277 -16 290 -22 22 -151 22 -182 0 -22 -15 -22 -17 -22
-290 l0 -274 -185 0 c-102 0 -185 2 -185 5 0 3 10 25 22 48 21 38 23 56 23
192 0 160 -6 190 -53 254 -14 18 -46 43 -71 55 -44 20 -59 21 -421 21 -339 0
-378 -2 -407 -18 -55 -30 -58 -41 -63 -307 l-5 -245 -155 0 -155 0 -6 150 c-8
169 -22 228 -73 302 -43 62 -114 100 -216 113 -102 13 -411 12 -506 -1 -135
-19 -212 -75 -254 -186 -20 -53 -40 -218 -40 -325 l0 -58 -154 0 -153 0 -6
133 c-6 149 -19 222 -52 287 -69 136 -178 166 -555 157 -243 -6 -291 -15 -357
-72 -85 -72 -112 -152 -121 -360 l-7 -140 -189 -3 -189 -2 7 32 c3 18 10 53
15 78 22 100 4 255 -38 337 -25 50 -79 98 -128 114 -26 9 -155 14 -419 16
-344 4 -383 3 -398 -12 -20 -20 -23 -174 -4 -193 9 -9 101 -12 354 -12 203 0
353 -4 369 -10 38 -15 58 -70 53 -152 -3 -54 -8 -72 -28 -93 l-23 -25 -353 0
c-383 0 -384 0 -384 -56 l0 -24 -367 2 -368 3 -3 178 -2 177 205 0 205 0 10
26 c6 14 10 54 10 90 0 112 42 104 -538 104 -580 0 -532 10 -532 -109 0 -117
-13 -111 226 -111 l204 0 -2 -177 -3 -178 -394 -3 c-374 -2 -396 -1 -415 17
-63 56 -60 56 -354 61 -326 6 -302 -5 -302 141 0 150 -29 139 360 142 l325 2
3 97 c2 89 1 98 -18 108 -15 8 -127 10 -368 8 -339 -3 -348 -4 -394 -26 -58
-29 -102 -92 -119 -170 -12 -58 -7 -316 6 -360 l7 -22 -292 2 -292 3 -104 254
c-57 140 -112 263 -121 274 -26 29 -92 57 -138 57 -23 0 -61 -10 -85 -22z
m5821 -231 c49 -33 53 -54 57 -314 2 -161 0 -243 -7 -243 -14 0 -41 41 -42 65
0 13 -4 7 -12 -15 -8 -23 -23 -40 -43 -50 l-30 -14 30 -16 c20 -9 35 -28 43
-50 8 -22 12 -28 12 -15 1 24 28 65 43 65 7 0 8 -16 3 -47 -18 -122 -45 -133
-318 -133 -111 0 -219 5 -239 10 -23 7 -46 23 -60 43 -21 29 -23 45 -26 171
l-4 139 52 -6 c91 -11 160 -73 160 -144 0 -17 5 -35 10 -38 6 -4 10 7 10 25 0
89 67 148 182 160 l73 7 -56 2 c-67 1 -116 16 -147 45 -32 28 -43 50 -51 105
-8 49 -9 47 -26 -34 -13 -63 -91 -115 -173 -115 l-34 0 4 168 c5 257 0 253
333 249 201 -2 233 -4 256 -20z m1378 10 c42 -15 70 -50 78 -100 5 -35 4 -37
-21 -37 -36 0 -76 44 -77 84 l-1 31 -8 -33 c-11 -47 -47 -82 -84 -82 -31 -1
-31 -1 9 -15 45 -16 74 -49 76 -85 1 -22 2 -21 9 7 4 18 13 39 19 47 16 19 70
40 79 31 4 -3 7 -120 6 -258 -1 -379 14 -362 -325 -362 -338 0 -323 -17 -327
358 -4 287 4 355 45 393 13 12 34 25 46 27 53 10 444 5 476 -6z m1406 -12 c23
-22 25 -32 25 -115 0 -83 -2 -93 -25 -115 -24 -25 -27 -25 -199 -25 -190 0
-206 -4 -206 -56 0 -25 -1 -25 -82 -22 l-83 3 -3 165 c-1 90 0 170 2 177 4 10
64 13 276 13 l271 0 24 -25z m-8451 -183 c31 -78 56 -144 56 -147 0 -3 -54 -5
-120 -5 -86 0 -120 3 -120 12 0 24 113 299 120 291 4 -4 32 -72 64 -151z
m8046 -241 c0 -46 20 -51 206 -51 172 0 175 0 199 -25 23 -22 25 -31 25 -122
0 -54 -4 -103 -8 -109 -20 -30 -55 -34 -321 -34 l-271 0 0 180 0 180 85 0 c77
0 85 -2 85 -19z m1808 -108 c-4 -80 -11 -141 -21 -164 -24 -58 -51 -64 -297
-64 -186 0 -219 2 -247 18 -45 24 -63 89 -63 229 l0 108 316 0 317 0 -5 -127z"/>
<path d="M6281 850 c-17 -15 -19 -20 -8 -20 9 0 21 -8 27 -17 10 -17 10 -17
20 0 6 9 19 17 28 18 13 0 12 3 -5 11 -13 6 -23 15 -23 20 0 13 -13 9 -39 -12z"/>
<path d="M7468 752 c-9 -91 -73 -151 -162 -153 -28 -1 -42 -3 -31 -5 110 -22
124 -27 148 -52 32 -34 47 -71 48 -125 2 -32 3 -35 6 -12 9 77 16 98 44 130
29 33 36 35 154 59 11 2 -3 4 -31 5 -89 2 -151 60 -163 152 l-7 54 -6 -53z"/>
</g>
</svg>
